<svg id="Слой_1" data-name="Слой 1" xmlns="http://www.w3.org/2000/svg" viewBox="0 0 601.53 147.12"><defs><style>.cls-1{fill:#fec90e;}</style></defs><title>roqas</title><path d="M208.08,180.34a37.31,37.31,0,0,1-.79-8.15l-.57-13.77c-.16-6.37-1.42-11.23-3.77-14.42l-.1-.11a23.14,23.14,0,0,0-5.89-5,28.76,28.76,0,0,0,7.62-7.74l.06-.09c2.71-4.45,4.08-10,4.08-16.43,0-12.87-5.35-21.76-15.9-26.42-5.3-2.42-12.14-3.65-20.31-3.65H122.59V192h18.86V148h29.06c6.44,0,9.81.95,11.45,1.73,3.76,1.88,5.68,5.49,6,11.32l.86,17a59.62,59.62,0,0,0,.76,8.54,15.82,15.82,0,0,0,1.21,4.05l.69,1.39h21.19v-6.52l-1.63-.61C210.22,184.52,209,183.69,208.08,180.34Zm-18.36-64.42c0,5.88-1.55,9.94-4.62,12.07-3.42,2.28-8.13,3.43-14,3.43H141.45v-30H172.8c4.41,0,7.78.61,10.33,1.89C187.56,105.48,189.72,109.6,189.72,115.92Z" transform="translate(-122.59 -84.57)"/><path d="M298.79,110.14c-11.48,0-20.72,4-27.45,12-6.76,7.81-10.18,18.45-10.18,31.63,0,12.22,3.23,22.19,9.62,29.64,6.56,7.49,15.46,11.28,26.44,11.28,13.14,0,23-4.28,29.3-12.73s9.19-18.7,9.19-31.33c0-13.22-3.62-23.39-10.75-30.21C318,113.6,309.18,110.14,298.79,110.14Zm-.28,16c7.67,0,12.93,2.92,16.06,8.93,2,3.91,3,9.1,3,15.84a43.58,43.58,0,0,1-4.3,19.88c-2.71,5.41-7.59,8.05-14.91,8.05-6.8,0-11.53-2.2-14.49-6.76-3.22-4.77-4.86-11-4.86-18.45,0-8,1.61-14.55,4.94-20C286.9,128.58,291.66,126.14,298.51,126.14Z" transform="translate(-122.59 -84.57)"/><path d="M447.71,118.13a25.24,25.24,0,0,0-2.7-2.34c-4.57-3.47-10.32-5.22-17.08-5.22-10.16,0-18.52,4.22-24.84,12.55s-9.37,18.59-9.37,30.94c0,13.44,3.43,23.61,10.16,30.19,6.74,6.74,14.55,10.15,23.19,10.15,5.92,0,11-1.11,15-3.29a26.35,26.35,0,0,0,4.89-3.38v34h17.71V112.28h-17ZM444.8,136.4c1.86,4,2.77,8.92,2.77,15.09,0,6.8-.83,12.14-2.53,16.34-2.91,7.21-8,10.72-15.68,10.72-7.32,0-12.07-3.23-15-10.21-1.66-3.84-2.51-8.93-2.51-15.14,0-9.25,1.78-16.12,5.27-20.38,3.42-4.06,7.49-6.11,12.09-6.11C436.8,126.71,441.75,129.78,444.8,136.4Z" transform="translate(-122.59 -84.57)"/><path d="M593.86,178.21c-.28,0-.54,0-.8,0l-.49.05a6.19,6.19,0,0,1-1.37.1,5.24,5.24,0,0,1-1.38-.13,4.76,4.76,0,0,1-.26-1.66v-43c0-7.92-3.29-14-9.45-17.68-5.81-3.67-13.41-5.53-22.61-5.53a39,39,0,0,0-21.3,5.8c-6.61,4-10,11.22-10.2,21.37l0,2.54h16.49l.25-2.22c.48-4.29,1.58-6.38,2.42-7.38l.08-.1c2.17-2.85,6.21-4.29,12-4.29,5.28,0,9.19.82,11.68,2.48,2.28,1.41,3.39,3.75,3.39,7.15a8.7,8.7,0,0,1-.6,3.74c-.41.83-1.24,2-3.79,2.21l-20,2.57c-7.62.91-13.67,3.4-18.52,7.62s-7.25,10.39-7.25,18a23.49,23.49,0,0,0,7.33,17.51c4.89,4.73,11.19,7.13,18.73,7.13a38,38,0,0,0,25.47-9.76,13.87,13.87,0,0,0,1.45,3.07c2.47,3.72,6.45,5.69,11.5,5.69a33,33,0,0,0,4.45-.17,30,30,0,0,0,4.42-1.06l2.34-.67V178.12h-2.5C594.78,178.12,594.29,178.17,593.86,178.21ZM572,155.47v6.16c0,6.7-2.91,11.25-9.25,14.36a24.48,24.48,0,0,1-11.53,2.85,11.72,11.72,0,0,1-7.87-2.61,7.79,7.79,0,0,1-3.05-6.61c0-3.88,1.41-6.5,4.54-8.3,1.82-1.14,4.76-1.94,9.28-2.5l7.55-1a72.92,72.92,0,0,0,7.41-1.47A24.9,24.9,0,0,0,572,155.47Z" transform="translate(-122.59 -84.57)"/><path d="M715.68,150.66c-3.69-2.35-10.23-4.68-18.89-6.75l-8.31-2a26.37,26.37,0,0,1-7.54-2.7c-2.53-1.54-3.66-3.3-3.66-5.72a5.92,5.92,0,0,1,2.73-5.15c1.91-1.46,5-2.2,9.2-2.2,6.33,0,10.72,1.32,13,3.93a11.46,11.46,0,0,1,2.44,6.26l.12,2.37h16.66l.07-2.42a23.07,23.07,0,0,0-4.92-15c-5.44-7.31-14.33-11-26.43-11-9.08,0-16.49,2.41-22.05,7.18a24.06,24.06,0,0,0-8.58,19c0,6.88,3.13,12.35,9.25,16.22,3.13,2.08,8,3.92,14.76,5.62l10,2.59c5.1,1.21,8.37,2.27,10,3.26l.11.06a5.27,5.27,0,0,1,3,5.1c0,3.36-1.24,5.55-4,7.1a22,22,0,0,1-11.06,2.82c-7.08,0-11.8-1.68-14.43-5.15l-.1-.12c-1.43-1.65-2.28-4.38-2.54-8.11l-.16-2.33H657.28l.15,2.65c.47,8.08,3.18,14.9,8.1,20.28,5.23,5.54,13.82,8.35,25.53,8.35,11,0,19-2.6,24.71-8a25.55,25.55,0,0,0,8.36-19C724.13,160.09,721.29,154.29,715.68,150.66Z" transform="translate(-122.59 -84.57)"/><rect class="cls-1" x="264.79" y="69.48" width="20.03" height="304.41" rx="10.01" transform="translate(373.89 -137.69) rotate(90)"/></svg>