<?xml version="1.0" encoding="iso-8859-1"?>
<!-- Generator: Adobe Illustrator 19.0.0, SVG Export Plug-In . SVG Version: 6.00 Build 0)  -->
<svg version="1.1" id="Capa_1" xmlns="http://www.w3.org/2000/svg" xmlns:xlink="http://www.w3.org/1999/xlink" x="0px" y="0px"
	 viewBox="0 0 512 512" style="enable-background:new 0 0 512 512;" xml:space="preserve">
<g>
	<g>
		<path d="M504.431,107.292l0.048-0.156L227.146,21.802l-0.048,0.156c-0.997-0.309-1.999-0.625-3.098-0.625H117.333
			c-0.285,0-0.523,0.139-0.803,0.161c-0.464,0.035-0.863,0.172-1.319,0.267c-1.388,0.289-2.635,0.807-3.768,1.579
			c-0.24,0.16-0.548,0.143-0.776,0.326L4,109l0.103,0.129C1.661,111.083,0,113.96,0,117.333V160c0,5.896,4.771,10.667,10.667,10.667
			h96V390.25l-18.208,18.208c-2,2-3.125,4.708-3.125,7.542v64c0,5.896,4.771,10.667,10.667,10.667h149.333
			c5.896,0,10.667-4.771,10.667-10.667v-64c0-2.833-1.125-5.542-3.125-7.542l-18.208-18.208V170.667H384v42.667
			c-4.042,0-7.729,2.281-9.542,5.896c-1.813,3.615-1.417,7.938,1,11.167l30.302,40.402c-0.147,0.707-0.427,1.367-0.427,2.119
			c0,6.875-2.688,13.344-7.542,18.208C388.896,300.021,384,311.844,384,324.417v6.25c0,17.646,14.354,32,32,32
			c17.646,0,32-14.354,32-32c0-5.896-4.771-10.667-10.667-10.667c-5.896,0-10.667,4.771-10.667,10.667
			c0,5.885-4.792,10.667-10.667,10.667s-10.667-4.781-10.667-10.667v-6.25c0-6.875,2.688-13.344,7.542-18.208
			c8.896-8.896,13.792-20.719,13.792-33.292c0-0.751-0.28-1.411-0.427-2.119l30.302-40.402c2.417-3.229,2.813-7.552,1-11.167
			c-1.813-3.615-5.5-5.896-9.542-5.896v-42.667h53.333c5.896,0,10.667-4.771,10.667-10.667v-42.667
			C512,112.536,508.784,108.635,504.431,107.292z M106.667,106.667H41.083L106.667,54.2V106.667z M128,117.333v-68.79l74.292,33.676
			L128,132.73V117.333z M128,169.431l74.292,33.673L128,253.625V169.431z M128,290.327L202.292,324L128,374.512V290.327z
			 M213.333,384h-61.339l61.339-41.708V384z M213.333,305.589l-74.283-33.673l74.283-50.518V305.589z M213.333,117.333V160v24.693
			l-74.281-33.673l74.281-50.509V117.333z M213.333,63.807l-46.635-21.141h46.635V63.807z M426.667,213.333h-21.333v-42.667h21.333
			V213.333z M234.667,106.667V46.448l195.711,60.219H234.667z"/>
	</g>
</g>
<g>
</g>
<g>
</g>
<g>
</g>
<g>
</g>
<g>
</g>
<g>
</g>
<g>
</g>
<g>
</g>
<g>
</g>
<g>
</g>
<g>
</g>
<g>
</g>
<g>
</g>
<g>
</g>
<g>
</g>
</svg>
