<?xml version="1.0" encoding="utf-8"?>
<!-- Generator: Adobe Illustrator 23.0.5, SVG Export Plug-In . SVG Version: 6.00 Build 0)  -->
<svg version="1.1" id="Слой_1" xmlns="http://www.w3.org/2000/svg" xmlns:xlink="http://www.w3.org/1999/xlink" x="0px" y="0px"
	 viewBox="0 0 512 512" style="enable-background:new 0 0 512 512;" xml:space="preserve">
<style type="text/css">
	.st0{fill:#FEC90E;}
</style>
<g>
	<g>
		<path d="M383.1,325.82c-0.93-4.03-2.49-12.72-2.49-25.62l-1.8-43.29c-0.48-20.05-4.47-35.31-11.86-45.34l-0.29-0.37
			c-4.99-5.99-11.11-11.18-18.51-15.68c9.6-6.67,17.62-14.81,23.96-24.31l0.18-0.28c8.5-14.01,12.81-31.39,12.81-51.67
			c0-40.46-16.82-68.4-49.99-83.05c-16.67-7.61-38.14-11.47-63.83-11.47H114.34v337.66h59.27V224.1h91.37
			c20.23,0,30.82,3.01,36,5.46c11.8,5.9,17.84,17.24,19.01,35.57l2.69,53.32c0.42,11.7,1.27,21.24,2.39,26.85
			c1.02,5.11,2.06,9.24,3.82,12.75l2.17,4.34h66.59V341.9l-5.1-1.91C389.82,338.96,385.84,336.35,383.1,325.82z M325.37,123.3
			c0,18.48-4.88,31.24-14.52,37.95c-10.75,7.14-25.58,10.76-44.08,10.76h-93.17V77.72h98.56c13.86,0,24.46,1.93,32.48,5.94
			C318.59,90.45,325.37,103.41,325.37,123.3z"/>
	</g>
	<polygon class="st0" points="114.34,487.27 114.34,424.31 397.66,395.06 397.66,458.02 	"/>
</g>
</svg>
