<?xml version="1.0" encoding="utf-8"?>
<!-- Generator: Adobe Illustrator 23.0.5, SVG Export Plug-In . SVG Version: 6.00 Build 0)  -->
<svg version="1.1" id="Capa_1" xmlns="http://www.w3.org/2000/svg" xmlns:xlink="http://www.w3.org/1999/xlink" x="0px" y="0px"
	 viewBox="0 0 426.67 426.67" style="enable-background:new 0 0 426.67 426.67;" xml:space="preserve">
<style type="text/css">
	.st0{fill:#FEC90E;}
</style>
<g>
	<g>
		<path d="M254.03,235.69c-0.3-1.29-0.8-4.07-0.8-8.2l-0.58-13.86c-0.15-6.42-1.43-11.31-3.8-14.52l-0.09-0.12
			c-1.6-1.92-3.56-3.58-5.93-5.02c3.07-2.14,5.64-4.74,7.67-7.79l0.06-0.09c2.72-4.48,4.1-10.05,4.1-16.55
			c0-12.95-5.39-21.9-16.01-26.59c-5.34-2.44-12.21-3.67-20.44-3.67h-50.25V247.4h18.98v-44.28h29.26c6.48,0,9.87,0.96,11.53,1.75
			c3.78,1.89,5.71,5.52,6.09,11.39l0.86,17.07c0.13,3.75,0.41,6.8,0.77,8.6c0.33,1.64,0.66,2.96,1.22,4.08l0.7,1.39h21.32v-6.56
			l-1.63-0.61C256.18,239.9,254.91,239.06,254.03,235.69z M235.55,170.84c0,5.92-1.56,10-4.65,12.15
			c-3.44,2.29-8.19,3.45-14.11,3.45h-29.83v-30.19h31.56c4.44,0,7.83,0.62,10.4,1.9C233.38,160.32,235.55,164.47,235.55,170.84z"/>
	</g>
	<polygon class="st0" points="167.97,287.39 167.97,267.23 258.7,257.86 258.7,278.02 	"/>
</g>
<g>
	<g>
	</g>
	<g>
	</g>
	<g>
	</g>
	<g>
	</g>
	<g>
	</g>
	<g>
	</g>
	<g>
	</g>
	<g>
	</g>
	<g>
	</g>
	<g>
	</g>
	<g>
	</g>
	<g>
	</g>
	<g>
	</g>
	<g>
	</g>
	<g>
	</g>
</g>
<g>
	<path d="M409.67,248.44c-13.64-5.97-22.34-19.94-21.67-34.83l0.01-0.27l-0.01-0.27c-0.67-14.89,8.04-28.86,21.68-34.83
		c9.67-3.37,15.12-13.67,12.43-23.63c-4.58-16.45-11.13-32.34-19.49-47.27c-5.1-9-16.28-12.46-25.56-7.96
		c-13.88,5.43-29.93,1.71-40.02-9.28l-0.37-0.37c-11.03-10.1-14.74-26.17-9.28-40.08c4.51-9.28,1.05-20.46-7.98-25.58
		c-14.9-8.36-30.79-14.94-47.28-19.55c-10-2.74-20.33,2.76-23.67,12.52c-5.98,13.63-19.94,22.33-34.83,21.66l-0.27-0.01l-0.27,0.01
		c-14.9,0.67-28.85-8.03-34.83-21.66c-3.35-9.77-13.68-15.25-23.7-12.51c-16.45,4.58-32.34,11.13-47.26,19.48
		c-9.07,5.11-12.53,16.33-7.97,25.65c5.42,13.88,1.71,29.93-9.29,40l-0.37,0.37c-10.08,11-26.14,14.71-40.02,9.28
		c-9.28-4.51-20.46-1.05-25.58,7.98c-8.36,14.9-14.94,30.79-19.55,47.28c-2.74,9.99,2.76,20.33,12.52,23.67
		c13.63,5.98,22.33,19.94,21.66,34.83l-0.01,0.27l0.01,0.27c0.67,14.89-8.04,28.86-21.68,34.83c-9.67,3.37-15.13,13.67-12.43,23.62
		c4.55,16.47,11.08,32.39,19.42,47.35c5.1,9.01,16.28,12.46,25.56,7.96c13.88-5.43,29.94-1.71,40.02,9.28l0.38,0.38
		c11.02,10.07,14.76,26.12,9.34,40.01c-4.5,9.28-1.04,20.46,7.99,25.58c14.9,8.34,30.79,14.89,47.26,19.47
		c9.96,2.75,20.3-2.71,23.68-12.44c5.98-13.64,19.95-22.33,34.83-21.67l0.27,0.01l0.27-0.01c14.88-0.64,28.85,8.03,34.83,21.66
		c2.72,7.92,10.11,13.21,18.46,13.21c0.03,0,0.06,0,0.09,0c1.71,0.03,3.47-0.23,5.15-0.69c16.45-4.58,32.34-11.13,47.27-19.49
		c8.96-5.08,12.43-16.18,8.02-25.43c-3.33-9.8-2.7-20.32,1.81-29.66c4.55-9.44,12.51-16.55,22.4-20.01
		c8.23-2.88,17.28-2.92,25.53-0.13c9.26,4.41,20.35,0.94,25.45-8.05c8.34-14.9,14.89-30.79,19.47-47.26
		C424.85,262.16,419.39,251.81,409.67,248.44z M304.19,341.36c-5.08,13.31-5.62,27.82-1.6,41.37c-10.32,5.49-21.17,9.97-32.37,13.34
		c-10.35-20.52-31.51-33.65-54.65-33.65c-0.73,0-1.46,0.01-2.2,0.04c-24-0.88-46.2,12.39-56.86,33.58
		c-11.08-3.4-21.82-7.88-32.04-13.36c7.34-22.61,0.91-47.75-16.81-64.04c-12.05-12.34-28.18-19.32-45.52-19.67
		c-6.26-0.05-12.6,1.05-18.53,3.18c-5.35-10.21-9.71-20.92-13-31.96c20.89-10.53,34.12-32.25,33.65-55.87l0.03-0.75
		c0.99-24.13-12.34-46.43-33.64-57.11c3.4-11.08,7.88-21.82,13.36-32.04c22.59,7.33,47.69,0.93,63.99-16.76
		c17.64-16.4,23.89-41.53,16.39-64.08c10.25-5.37,21.01-9.74,32.11-13.03c10.67,21.18,32.85,34.5,56.86,33.63
		c24,0.89,46.2-12.39,56.86-33.58c11.08,3.4,21.82,7.88,32.04,13.36c-7.33,22.59-0.93,47.69,16.76,63.99
		c16.4,17.64,41.53,23.89,64.08,16.39c5.37,10.25,9.74,21.01,13.03,32.11c-21.18,10.67-34.49,32.86-33.63,56.86
		c-0.9,24.02,12.39,46.2,33.58,56.86c-3.42,11.14-7.93,21.93-13.44,32.19C350.68,293.04,316.27,309.73,304.19,341.36z"/>
	<path d="M213.36,76.9c-75.35,0-136.43,61.08-136.43,136.43s61.08,136.43,136.43,136.43S349.8,288.69,349.8,213.34
		C349.8,137.99,288.72,76.9,213.36,76.9z M213.36,334.47c-66.9,0-121.13-54.23-121.13-121.13S146.47,92.21,213.36,92.21
		s121.13,54.23,121.13,121.13S280.26,334.47,213.36,334.47z"/>
</g>
</svg>
