<svg width="19" height="19" viewBox="0 0 19 19" fill="none" xmlns="http://www.w3.org/2000/svg">
<g clip-path="url(#clip0)">
<path d="M13.1214 6.55077L11.6341 6.49622L11.3116 15.3017L12.7989 15.356L13.1214 6.55077Z" fill="black"/>
<path d="M10.2442 6.52347H8.75598V15.329H10.2442V6.52347Z" fill="black"/>
<path d="M7.68874 15.3014L7.3663 6.49594L5.87903 6.55053L6.20151 15.356L7.68874 15.3014Z" fill="black"/>
<path d="M0.645142 2.85248V4.34071H2.19591L3.42616 18.3211C3.45989 18.7053 3.78163 19 4.1673 19H14.808C15.1938 19 15.5157 18.7051 15.5492 18.3209L16.7795 4.34071H18.3553V2.85248H0.645142ZM14.1265 17.5118H4.84871L3.68985 4.34071H15.2856L14.1265 17.5118Z" fill="black"/>
<path d="M11.9305 0H7.06893C6.38508 0 5.82874 0.556344 5.82874 1.2402V3.5966H7.31697V1.48823H11.6825V3.5966H13.1707V1.2402C13.1707 0.556344 12.6144 0 11.9305 0Z" fill="black"/>
</g>
<defs>
<clipPath id="clip0">
<rect width="19" height="19" fill="white"/>
</clipPath>
</defs>
</svg>
