<svg width="16" height="16" viewBox="0 0 16 16" fill="none" xmlns="http://www.w3.org/2000/svg">
<path d="M4.71875 10.4011V15.9999H0.96875V14.5937C0.96875 12.4259 2.61231 10.6351 4.71875 10.4011Z" fill="#0F0F0F"/>
<path d="M5.65625 10.375H10.3438V12.25H5.65625V10.375Z" fill="#0F0F0F"/>
<path d="M15.0312 14.5937V15.9999H11.2812V10.4011C13.3877 10.6351 15.0312 12.4259 15.0312 14.5937Z" fill="#0F0F0F"/>
<path d="M10.3438 13.1875V16H9.40625V14.125H8.46875V16H7.53125V14.125H6.59375V16H5.65625V13.1875H10.3438Z" fill="#0F0F0F"/>
<path d="M12.0625 5.0625V5.375C12.0625 7.61509 10.2401 9.4375 8 9.4375C5.75994 9.4375 3.9375 7.61509 3.9375 5.375V5.0625H12.0625Z" fill="#0F0F0F"/>
<path d="M3.9375 3.1875V3.125C3.9375 1.56116 5.09219 0.262 6.59375 0.0351562V3.1875H7.53125V0H8.46875V3.1875H9.40625V0.0351562C10.9078 0.262 12.0625 1.56116 12.0625 3.125V3.1875H13V4.125H3V3.1875H3.9375Z" fill="#FEC90E"/>
</svg>
